{"accessors":[{"bufferView":0,"byteOffset":0,"componentType":5126,"count":390,"max":[0.6,0.35,-0.25],"min":[-0.6,-0.85,-0.34],"normalized":false,"type":"VEC3"},{"bufferView":1,"byteOffset":0,"componentType":5126,"count":390,"max":[0.999462,0.999461,0.000107,1],"min":[-0.999462,-0.999462,-0.000108,-1],"normalized":false,"type":"VEC4"},{"bufferView":2,"byteOffset":0,"componentType":5126,"count":390,"max":[0.999462,0.999461,0.000064],"min":[-0.999462,-0.999462,-1],"normalized":false,"type":"VEC3"},{"bufferView":3,"byteOffset":0,"componentType":5126,"count":390,"max":[1,1],"min":[0,0],"normalized":false,"type":"VEC2"},{"bufferView":4,"byteOffset":0,"componentType":5125,"count":390,"max":[389],"min":[0],"normalized":false,"type":"SCALAR"},{"bufferView":5,"byteOffset":0,"componentType":5126,"count":300,"max":[0.75,1,0.25],"min":[-0.85,-1,-0.25],"normalized":false,"type":"VEC3"},{"bufferView":6,"byteOffset":0,"componentType":5126,"count":300,"max":[0.000092,0.04227,0.000076,-1],"min":[-1,-1,-1,-1],"normalized":false,"type":"VEC4"},{"bufferView":7,"byteOffset":0,"componentType":5126,"count":300,"max":[1,1,1],"min":[-1,-1,-1],"normalized":false,"type":"VEC3"},{"bufferView":8,"byteOffset":0,"componentType":5126,"count":300,"max":[1,1],"min":[0,0],"normalized":false,"type":"VEC2"},{"bufferView":9,"byteOffset":0,"componentType":5125,"count":300,"max":[299],"min":[0],"normalized":false,"type":"SCALAR"},{"bufferView":10,"byteOffset":0,"componentType":5126,"count":1,"max":[0],"min":[0],"normalized":false,"type":"SCALAR"},{"bufferView":11,"byteOffset":0,"componentType":5126,"count":1,"max":[6.2,2.5,6.75],"min":[6.2,2.5,6.75],"normalized":false,"type":"VEC3"},{"bufferView":12,"byteOffset":0,"componentType":5126,"count":8,"max":[1.2],"min":[0],"normalized":false,"type":"SCALAR"},{"bufferView":13,"byteOffset":0,"componentType":5126,"count":8,"max":[6.225,2.525,6.75],"min":[6.2,2.5,6.725],"normalized":false,"type":"VEC3"}],"animations":[{"channels":[{"sampler":0,"target":{"node":1,"path":"translation"}}],"name":"RESET","samplers":[{"input":10,"interpolation":"LINEAR","output":11}]},{"channels":[{"sampler":0,"target":{"node":1,"path":"translation"}}],"name":"Shake","samplers":[{"input":12,"interpolation":"LINEAR","output":13}]}],"asset":{"generator":"Godot Engine v4.1.1.stable.official@bd6af8e0ea69167dd0627f3bd54f9105bda0f8b5","version":"2.0"},"bufferViews":[{"buffer":0,"byteLength":4680,"byteOffset":0},{"buffer":0,"byteLength":6240,"byteOffset":4680},{"buffer":0,"byteLength":4680,"byteOffset":10920},{"buffer":0,"byteLength":3120,"byteOffset":15600},{"buffer":0,"byteLength":1560,"byteOffset":18720},{"buffer":0,"byteLength":3600,"byteOffset":20280},{"buffer":0,"byteLength":4800,"byteOffset":23880},{"buffer":0,"byteLength":3600,"byteOffset":28680},{"buffer":0,"byteLength":2400,"byteOffset":32280},{"buffer":0,"byteLength":1200,"byteOffset":34680},{"buffer":0,"byteLength":4,"byteOffset":35880},{"buffer":0,"byteLength":12,"byteOffset":35884},{"buffer":0,"byteLength":32,"byteOffset":35896},{"buffer":0,"byteLength":96,"byteOffset":35928}],"buffers":[{"byteLength":36024,"uri":"air_vent0.bin"}],"materials":[{"extensions":{},"pbrMetallicRoughness":{"baseColorFactor":[0.99999988079071,0.99999988079071,0.99999988079071,1],"metallicFactor":0,"roughnessFactor":1}},{"extensions":{},"pbrMetallicRoughness":{"baseColorFactor":[0.99999988079071,0.99999988079071,0.99999988079071,1],"metallicFactor":0,"roughnessFactor":1}}],"meshes":[{"extras":{"targetNames":[]},"primitives":[{"attributes":{"NORMAL":2,"POSITION":0,"TANGENT":1,"TEXCOORD_0":3},"indices":4,"material":0,"mode":4},{"attributes":{"NORMAL":7,"POSITION":5,"TANGENT":6,"TEXCOORD_0":8},"indices":9,"material":1,"mode":4}]}],"nodes":[{"children":[1],"extensions":{},"name":"AirVent"},{"children":[2,3,5],"extensions":{},"mesh":0,"name":"CSGBox3D2","rotation":[0,0.70710676908493,0,0.70710676908493],"translation":[6.19999980926514,2.5,6.75]},{"extensions":{},"name":"CSGBox3D22","translation":[-0.80000001192093,-0.20000000298023,0]},{"children":[4],"extensions":{},"name":"CSGCylinder3D","rotation":[-0.70710676908493,0,0,0.70710676908493],"translation":[0.00000000000208164995657567,-0.25,-0.28999999165535]},{"extensions":{},"name":"GPUParticles3D"},{"extensions":{},"name":"AnimationPlayer"}],"scene":0,"scenes":[{"nodes":[0]}]}