{"accessors":[{"bufferView":0,"byteOffset":0,"componentType":5126,"count":60,"max":[7.5,4,7],"min":[-4.5,0,-7],"normalized":false,"type":"VEC3"},{"bufferView":1,"byteOffset":0,"componentType":5126,"count":60,"max":[0,0,0.000015,1],"min":[-1,-1,-1,1],"normalized":false,"type":"VEC4"},{"bufferView":2,"byteOffset":0,"componentType":5126,"count":60,"max":[1,1,1],"min":[-1,-1,-1],"normalized":false,"type":"VEC3"},{"bufferView":3,"byteOffset":0,"componentType":5126,"count":60,"max":[1,1],"min":[0,0],"normalized":false,"type":"VEC2"},{"bufferView":4,"byteOffset":0,"componentType":5125,"count":60,"max":[59],"min":[0],"normalized":false,"type":"SCALAR"},{"bufferView":5,"byteOffset":0,"componentType":5126,"count":36,"max":[0.75,0.25,8],"min":[-0.75,-0.25,-8],"normalized":false,"type":"VEC3"},{"bufferView":6,"byteOffset":0,"componentType":5126,"count":36,"max":[0,0,0.000076,-1],"min":[-1,-1,-1,-1],"normalized":false,"type":"VEC4"},{"bufferView":7,"byteOffset":0,"componentType":5126,"count":36,"max":[1,1,1],"min":[-1,-1,-1],"normalized":false,"type":"VEC3"},{"bufferView":8,"byteOffset":0,"componentType":5126,"count":36,"max":[1,1],"min":[0,0],"normalized":false,"type":"VEC2"},{"bufferView":9,"byteOffset":0,"componentType":5125,"count":36,"max":[35],"min":[0],"normalized":false,"type":"SCALAR"},{"bufferView":10,"byteOffset":0,"componentType":5126,"count":24,"max":[0.75,0.125,8],"min":[-0.75,-0.125,-8],"normalized":false,"type":"VEC3"},{"bufferView":11,"byteOffset":0,"componentType":5126,"count":24,"max":[1,0,1,1],"min":[-1,-0.000015,-1,1],"normalized":false,"type":"VEC4"},{"bufferView":12,"byteOffset":0,"componentType":5126,"count":24,"max":[1,1,1],"min":[-1,-1,-1],"normalized":false,"type":"VEC3"},{"bufferView":13,"byteOffset":0,"componentType":5126,"count":24,"max":[1,1],"min":[0,0],"normalized":false,"type":"VEC2"},{"bufferView":14,"byteOffset":0,"componentType":5125,"count":36,"max":[23],"min":[0],"normalized":false,"type":"SCALAR"},{"bufferView":15,"byteOffset":0,"componentType":5126,"count":36,"max":[0.75,0.125,8],"min":[-0.75,-0.125,-8],"normalized":false,"type":"VEC3"},{"bufferView":16,"byteOffset":0,"componentType":5125,"count":36,"max":[35],"min":[0],"normalized":false,"type":"SCALAR"},{"bufferView":17,"byteOffset":0,"componentType":5126,"count":24,"max":[0.75,0.4,0.5],"min":[-0.75,-0.4,-0.5],"normalized":false,"type":"VEC3"},{"bufferView":18,"byteOffset":0,"componentType":5126,"count":24,"max":[1,0,1,1],"min":[-1,-0.000015,-1,1],"normalized":false,"type":"VEC4"},{"bufferView":19,"byteOffset":0,"componentType":5126,"count":24,"max":[1,1,1],"min":[-1,-1,-1],"normalized":false,"type":"VEC3"},{"bufferView":20,"byteOffset":0,"componentType":5126,"count":24,"max":[1,1],"min":[0,0],"normalized":false,"type":"VEC2"},{"bufferView":21,"byteOffset":0,"componentType":5125,"count":36,"max":[23],"min":[0],"normalized":false,"type":"SCALAR"},{"bufferView":22,"byteOffset":0,"componentType":5126,"count":36,"max":[3.5,1.125,0.5],"min":[-3.5,-1.125,-0.5],"normalized":false,"type":"VEC3"},{"bufferView":23,"byteOffset":0,"componentType":5126,"count":36,"max":[0,0,0.000076,-1],"min":[-1,-1,-1,-1],"normalized":false,"type":"VEC4"},{"bufferView":24,"byteOffset":0,"componentType":5126,"count":36,"max":[1,1,1],"min":[-1,-1,-1],"normalized":false,"type":"VEC3"},{"bufferView":25,"byteOffset":0,"componentType":5126,"count":36,"max":[1,1],"min":[0,0],"normalized":false,"type":"VEC2"},{"bufferView":26,"byteOffset":0,"componentType":5125,"count":36,"max":[35],"min":[0],"normalized":false,"type":"SCALAR"},{"bufferView":27,"byteOffset":0,"componentType":5126,"count":36,"max":[3.5,1.125,0.5],"min":[-3.5,-1.125,-0.5],"normalized":false,"type":"VEC3"},{"bufferView":28,"byteOffset":0,"componentType":5126,"count":36,"max":[0,0,0.000076,-1],"min":[-1,-1,-1,-1],"normalized":false,"type":"VEC4"},{"bufferView":29,"byteOffset":0,"componentType":5126,"count":36,"max":[1,1,1],"min":[-1,-1,-1],"normalized":false,"type":"VEC3"},{"bufferView":30,"byteOffset":0,"componentType":5126,"count":36,"max":[1,1],"min":[0,0],"normalized":false,"type":"VEC2"},{"bufferView":31,"byteOffset":0,"componentType":5125,"count":36,"max":[35],"min":[0],"normalized":false,"type":"SCALAR"},{"bufferView":32,"byteOffset":0,"componentType":5126,"count":36,"max":[5,1.125,0.5],"min":[-5,-1.125,-0.5],"normalized":false,"type":"VEC3"},{"bufferView":33,"byteOffset":0,"componentType":5126,"count":36,"max":[0,0,0.000076,-1],"min":[-1,-1,-1,-1],"normalized":false,"type":"VEC4"},{"bufferView":34,"byteOffset":0,"componentType":5126,"count":36,"max":[1,1,1],"min":[-1,-1,-1],"normalized":false,"type":"VEC3"},{"bufferView":35,"byteOffset":0,"componentType":5126,"count":36,"max":[1,1],"min":[0,0],"normalized":false,"type":"VEC2"},{"bufferView":36,"byteOffset":0,"componentType":5125,"count":36,"max":[35],"min":[0],"normalized":false,"type":"SCALAR"},{"bufferView":37,"byteOffset":0,"componentType":5126,"count":1950,"max":[0.5,1,0.5],"min":[-0.5,-1,-0.5],"normalized":false,"type":"VEC3"},{"bufferView":38,"byteOffset":0,"componentType":5126,"count":1950,"max":[1,0,1,1],"min":[-1,-0.000022,-1,1],"normalized":false,"type":"VEC4"},{"bufferView":39,"byteOffset":0,"componentType":5126,"count":1950,"max":[1,1,1],"min":[-1,-1,-1],"normalized":false,"type":"VEC3"},{"bufferView":40,"byteOffset":0,"componentType":5126,"count":1950,"max":[1,1],"min":[0,0],"normalized":false,"type":"VEC2"},{"bufferView":41,"byteOffset":0,"componentType":5125,"count":10368,"max":[1949],"min":[0],"normalized":false,"type":"SCALAR"},{"bufferView":42,"byteOffset":0,"componentType":5126,"count":384,"max":[0.75,1,0.75],"min":[-0.75,-1,-0.75],"normalized":false,"type":"VEC3"},{"bufferView":43,"byteOffset":0,"componentType":5126,"count":384,"max":[0.997811,0.000065,0.997809,1],"min":[-0.997814,-0.000022,-0.997813,-1],"normalized":false,"type":"VEC4"},{"bufferView":44,"byteOffset":0,"componentType":5126,"count":384,"max":[0.997809,1,0.997809],"min":[-0.997811,-1,-0.99781],"normalized":false,"type":"VEC3"},{"bufferView":45,"byteOffset":0,"componentType":5126,"count":384,"max":[1,1],"min":[0,0],"normalized":false,"type":"VEC2"},{"bufferView":46,"byteOffset":0,"componentType":5125,"count":384,"max":[383],"min":[0],"normalized":false,"type":"SCALAR"},{"bufferView":47,"byteOffset":0,"componentType":5126,"count":24,"max":[0.175,0.075,0.275],"min":[-0.175,-0.075,-0.275],"normalized":false,"type":"VEC3"},{"bufferView":48,"byteOffset":0,"componentType":5126,"count":24,"max":[1,0,1,1],"min":[-1,-0.000015,-1,1],"normalized":false,"type":"VEC4"},{"bufferView":49,"byteOffset":0,"componentType":5126,"count":24,"max":[1,1,1],"min":[-1,-1,-1],"normalized":false,"type":"VEC3"},{"bufferView":50,"byteOffset":0,"componentType":5126,"count":24,"max":[1,1],"min":[0,0],"normalized":false,"type":"VEC2"},{"bufferView":51,"byteOffset":0,"componentType":5125,"count":36,"max":[23],"min":[0],"normalized":false,"type":"SCALAR"}],"asset":{"generator":"Godot Engine v4.1.1.stable.official@bd6af8e0ea69167dd0627f3bd54f9105bda0f8b5","version":"2.0"},"bufferViews":[{"buffer":0,"byteLength":720,"byteOffset":0},{"buffer":0,"byteLength":960,"byteOffset":720},{"buffer":0,"byteLength":720,"byteOffset":1680},{"buffer":0,"byteLength":480,"byteOffset":2400},{"buffer":0,"byteLength":240,"byteOffset":2880},{"buffer":0,"byteLength":432,"byteOffset":3120},{"buffer":0,"byteLength":576,"byteOffset":3552},{"buffer":0,"byteLength":432,"byteOffset":4128},{"buffer":0,"byteLength":288,"byteOffset":4560},{"buffer":0,"byteLength":144,"byteOffset":4848},{"buffer":0,"byteLength":288,"byteOffset":4992},{"buffer":0,"byteLength":384,"byteOffset":5280},{"buffer":0,"byteLength":288,"byteOffset":5664},{"buffer":0,"byteLength":192,"byteOffset":5952},{"buffer":0,"byteLength":144,"byteOffset":6144},{"buffer":0,"byteLength":432,"byteOffset":6288},{"buffer":0,"byteLength":144,"byteOffset":6720},{"buffer":0,"byteLength":288,"byteOffset":6864},{"buffer":0,"byteLength":384,"byteOffset":7152},{"buffer":0,"byteLength":288,"byteOffset":7536},{"buffer":0,"byteLength":192,"byteOffset":7824},{"buffer":0,"byteLength":144,"byteOffset":8016},{"buffer":0,"byteLength":432,"byteOffset":8160},{"buffer":0,"byteLength":576,"byteOffset":8592},{"buffer":0,"byteLength":432,"byteOffset":9168},{"buffer":0,"byteLength":288,"byteOffset":9600},{"buffer":0,"byteLength":144,"byteOffset":9888},{"buffer":0,"byteLength":432,"byteOffset":10032},{"buffer":0,"byteLength":576,"byteOffset":10464},{"buffer":0,"byteLength":432,"byteOffset":11040},{"buffer":0,"byteLength":288,"byteOffset":11472},{"buffer":0,"byteLength":144,"byteOffset":11760},{"buffer":0,"byteLength":432,"byteOffset":11904},{"buffer":0,"byteLength":576,"byteOffset":12336},{"buffer":0,"byteLength":432,"byteOffset":12912},{"buffer":0,"byteLength":288,"byteOffset":13344},{"buffer":0,"byteLength":144,"byteOffset":13632},{"buffer":0,"byteLength":23400,"byteOffset":13776},{"buffer":0,"byteLength":31200,"byteOffset":37176},{"buffer":0,"byteLength":23400,"byteOffset":68376},{"buffer":0,"byteLength":15600,"byteOffset":91776},{"buffer":0,"byteLength":41472,"byteOffset":107376},{"buffer":0,"byteLength":4608,"byteOffset":148848},{"buffer":0,"byteLength":6144,"byteOffset":153456},{"buffer":0,"byteLength":4608,"byteOffset":159600},{"buffer":0,"byteLength":3072,"byteOffset":164208},{"buffer":0,"byteLength":1536,"byteOffset":167280},{"buffer":0,"byteLength":288,"byteOffset":168816},{"buffer":0,"byteLength":384,"byteOffset":169104},{"buffer":0,"byteLength":288,"byteOffset":169488},{"buffer":0,"byteLength":192,"byteOffset":169776},{"buffer":0,"byteLength":144,"byteOffset":169968}],"buffers":[{"byteLength":170112,"uri":"book_warehouse0.bin"}],"cameras":[{"perspective":{"yfov":1.30899691581726,"zfar":4000,"znear":0.0500000007450581},"type":"perspective"}],"extensions":{"KHR_lights_punctual":{"lights":[{"color":[1,1,1],"intensity":1,"range":340282346638528859811704183484516925440,"type":"directional"},{"color":[1,1,1],"intensity":2,"range":8,"type":"point"}]},"OMI_collider":{"colliders":[{"mesh":3,"type":"hull"},{"height":2,"radius":0.5,"type":"capsule"},{"size":[0.349999994039536,0.150000005960464,0.550000011920929],"type":"box"}]}},"extensionsRequired":["KHR_texture_transform"],"extensionsUsed":["KHR_lights_punctual","KHR_texture_transform","OMI_collider","OMI_physics_body"],"images":[{"uri":"textures%2F_albedo000.png"},{"uri":"textures%2F_albedo002.png"}],"materials":[{"extensions":{},"pbrMetallicRoughness":{"baseColorFactor":[0.99999988079071,0.99999988079071,0.99999988079071,1],"metallicFactor":0,"roughnessFactor":1}},{"extensions":{},"pbrMetallicRoughness":{"baseColorFactor":[0.99999988079071,0.99999988079071,0.99999988079071,1],"metallicFactor":0,"roughnessFactor":1}},{"extensions":{},"pbrMetallicRoughness":{"baseColorFactor":[0.99999988079071,0.99999988079071,0.99999988079071,1],"baseColorTexture":{"extensions":{"KHR_texture_transform":{"offset":[0.000000000000794045330789611,0.381450444459915]}},"index":0},"metallicFactor":0,"roughnessFactor":1}},{"extensions":{},"pbrMetallicRoughness":{"baseColorFactor":[0,0,0,1],"metallicFactor":0,"roughnessFactor":1}},{"extensions":{},"pbrMetallicRoughness":{"baseColorFactor":[0.309468895196915,0.158960819244385,0.0382043644785881,1],"metallicFactor":0,"roughnessFactor":1}},{"extensions":{},"pbrMetallicRoughness":{"baseColorFactor":[0.0908417105674744,0.0231533609330654,0.0109600909054279,1],"metallicFactor":0,"roughnessFactor":1}},{"extensions":{},"pbrMetallicRoughness":{"baseColorFactor":[0.0998987257480621,0.162029355764389,0.168269366025925,1],"metallicFactor":0,"roughnessFactor":1}},{"extensions":{},"pbrMetallicRoughness":{"baseColorFactor":[0.99999988079071,0.99999988079071,0.99999988079071,1],"metallicFactor":0,"roughnessFactor":1}},{"extensions":{},"pbrMetallicRoughness":{"baseColorFactor":[0.99999988079071,0.99999988079071,0.99999988079071,1],"baseColorTexture":{"index":1},"metallicFactor":0,"roughnessFactor":1}}],"meshes":[{"extras":{"targetNames":[]},"primitives":[{"attributes":{"NORMAL":2,"POSITION":0,"TANGENT":1,"TEXCOORD_0":3},"indices":4,"material":0,"mode":4}]},{"extras":{"targetNames":[]},"primitives":[{"attributes":{"NORMAL":7,"POSITION":5,"TANGENT":6,"TEXCOORD_0":8},"indices":9,"material":1,"mode":4}]},{"extras":{"targetNames":[]},"primitives":[{"attributes":{"NORMAL":12,"POSITION":10,"TANGENT":11,"TEXCOORD_0":13},"indices":14,"material":2,"mode":4}]},{"extras":{"targetNames":[]},"primitives":[{"attributes":{"POSITION":15},"indices":16,"mode":4}]},{"extras":{"targetNames":[]},"primitives":[{"attributes":{"NORMAL":19,"POSITION":17,"TANGENT":18,"TEXCOORD_0":20},"indices":21,"material":3,"mode":4}]},{"extras":{"targetNames":[]},"primitives":[{"attributes":{"NORMAL":24,"POSITION":22,"TANGENT":23,"TEXCOORD_0":25},"indices":26,"material":4,"mode":4}]},{"extras":{"targetNames":[]},"primitives":[{"attributes":{"NORMAL":29,"POSITION":27,"TANGENT":28,"TEXCOORD_0":30},"indices":31,"material":5,"mode":4}]},{"extras":{"targetNames":[]},"primitives":[{"attributes":{"NORMAL":34,"POSITION":32,"TANGENT":33,"TEXCOORD_0":35},"indices":36,"material":6,"mode":4}]},{"extras":{"targetNames":[]},"primitives":[{"attributes":{"NORMAL":39,"POSITION":37,"TANGENT":38,"TEXCOORD_0":40},"indices":41,"material":7,"mode":4}]},{"extras":{"targetNames":[]},"primitives":[{"attributes":{"NORMAL":44,"POSITION":42,"TANGENT":43,"TEXCOORD_0":45},"indices":46,"material":2,"mode":4}]},{"extras":{"targetNames":[]},"primitives":[{"attributes":{"NORMAL":49,"POSITION":47,"TANGENT":48,"TEXCOORD_0":50},"indices":51,"material":8,"mode":4}]}],"nodes":[{"children":[1,2,3,6,12,13,14,15,21,23,24],"extensions":{},"name":"BookWarehouse"},{"extensions":{},"name":"WorldEnvironment"},{"extensions":{"KHR_lights_punctual":{"light":0}},"name":"DirectionalLight3D","rotation":[-0.12940955162048,0.836516261100769,0.482962936162949,0.224143892526627]},{"children":[4,5],"extensions":{},"mesh":0,"name":"CSGCombiner3D2"},{"extensions":{},"name":"Room","translation":[1.5,2,0.00000000000208164735449046]},{"extensions":{},"name":"ConveyorHole","translation":[6.75,1.125,8]},{"children":[7,11],"extensions":{},"mesh":1,"name":"Conveyor2","translation":[6.75,0.25,1]},{"children":[8,9,10],"extensions":{"OMI_physics_body":{"type":"kinematic"}},"name":"Conveyor3","translation":[0.00000000000208164995657567,0.375,0.00000000000208164995657567]},{"extensions":{},"mesh":2,"name":"MeshInstance3D"},{"extensions":{"OMI_collider":{"collider":0}},"name":"CollisionShape3D"},{"extensions":{},"name":"AnimationPlayer"},{"extensions":{},"mesh":4,"name":"Abyss","translation":[0,0.850000023841858,6.5]},{"extensions":{},"mesh":5,"name":"BestSeller2","translation":[1,1.125,-6.5]},{"extensions":{},"mesh":6,"name":"Classics2","translation":[1,1.125,6.5]},{"extensions":{},"mesh":7,"name":"SciFi2","rotation":[0,0.70710676908493,0,0.70710676908493],"translation":[-4,1.125,0.00000000000208164735449046]},{"children":[16,17,18,19],"extensions":{"OMI_physics_body":{"type":"character"}},"name":"Player","translation":[0,1,0]},{"extensions":{},"mesh":8,"name":"MeshInstance3D2"},{"extensions":{"OMI_collider":{"collider":1}},"name":"CollisionShape3D2"},{"extensions":{},"name":"CameraDirection","translation":[0,0.375,0]},{"children":[20],"extensions":{},"name":"CinematicCamera","translation":[0,0.375,0]},{"extensions":{},"name":"PhantomCamera3D"},{"camera":0,"children":[22],"extensions":{},"name":"Camera3D","translation":[0,0.375,0]},{"extensions":{},"name":"PhantomCameraHost"},{"extensions":{"KHR_lights_punctual":{"light":1}},"name":"OmniLight3D","translation":[1.5,2,0.00000000000208164735449046]},{"children":[25,31],"extensions":{},"name":"BookSpawner","translation":[1.5,2,0.00000000000208164995657567]},{"children":[26,27,30],"extensions":{},"mesh":9,"name":"Tube2","translation":[5.19999980926514,1,-6.30000019073486]},{"extensions":{},"name":"CSGCylinder3D2"},{"children":[28,29],"extensions":{"OMI_physics_body":{"mass":0.300000011920929,"type":"rigid"}},"name":"Book"},{"extensions":{},"mesh":10,"name":"MeshInstance3D3"},{"extensions":{"OMI_collider":{"collider":2}},"name":"CollisionShape3D3"},{"extensions":{},"name":"BookSpawnPoint","translation":[0.00000000000208164995657567,0.5,0.00000000000208164995657567]},{"extensions":{},"name":"Timer"}],"samplers":[{"magFilter":9729,"minFilter":9987,"wrapS":10497,"wrapT":10497},{"magFilter":9729,"minFilter":9987,"wrapS":10497,"wrapT":10497}],"scene":0,"scenes":[{"nodes":[0]}],"textures":[{"sampler":0,"source":0},{"sampler":1,"source":1}]}