{"accessors":[{"bufferView":0,"byteOffset":0,"componentType":5126,"count":846,"max":[0.1,0.15,0.147892],"min":[-0.147892,-0.15,-0.1],"normalized":false,"type":"VEC3"},{"bufferView":1,"byteOffset":0,"componentType":5126,"count":846,"max":[1,1,0.99953,1],"min":[-0.999712,-1,-1,-1],"normalized":false,"type":"VEC4"},{"bufferView":2,"byteOffset":0,"componentType":5126,"count":846,"max":[0.996587,1,0.999739],"min":[-1,-1,-0.990599],"normalized":false,"type":"VEC3"},{"bufferView":3,"byteOffset":0,"componentType":5126,"count":846,"max":[1,1],"min":[0,0],"normalized":false,"type":"VEC2"},{"bufferView":4,"byteOffset":0,"componentType":5125,"count":846,"max":[845],"min":[0],"normalized":false,"type":"SCALAR"}],"asset":{"generator":"Godot Engine v4.1.1.stable.official@bd6af8e0ea69167dd0627f3bd54f9105bda0f8b5","version":"2.0"},"bufferViews":[{"buffer":0,"byteLength":10152,"byteOffset":0},{"buffer":0,"byteLength":13536,"byteOffset":10152},{"buffer":0,"byteLength":10152,"byteOffset":23688},{"buffer":0,"byteLength":6768,"byteOffset":33840},{"buffer":0,"byteLength":3384,"byteOffset":40608}],"buffers":[{"byteLength":43992,"uri":"coffee0.bin"}],"materials":[{"extensions":{},"pbrMetallicRoughness":{"baseColorFactor":[0.99999988079071,0.99999988079071,0.99999988079071,1],"metallicFactor":0,"roughnessFactor":1}}],"meshes":[{"extras":{"targetNames":[]},"primitives":[{"attributes":{"NORMAL":2,"POSITION":0,"TANGENT":1,"TEXCOORD_0":3},"indices":4,"material":0,"mode":4}]}],"nodes":[{"children":[1,2],"extensions":{},"mesh":0,"name":"Coffee2","rotation":[0.000000000000000174393562102269,0.499999940395355,-0,0.866025447845459]},{"extensions":{},"name":"CSGCylinder3D2","translation":[0,0.025000000372529,0]},{"children":[3],"extensions":{},"name":"CSGTorus3D","rotation":[-0.49999997019768,-0.00000006322027,0.500000059604645,0.70710676908493],"translation":[-0.07071069628,0,0.0707106962800026]},{"extensions":{},"name":"CSGCylinder3D3","rotation":[0.499999970197678,-0.00000006322027,-0.50000005960464,0.70710676908493],"translation":[0.0883883982896805,0,-0.05303309857845]}],"scene":0,"scenes":[{"nodes":[0]}]}