{"accessors":[{"bufferView":0,"byteOffset":0,"componentType":5126,"count":214,"max":[0.839506,0.839506,0],"min":[-0.839506,-0.839506,-0.401723],"normalized":false,"type":"VEC3"},{"bufferView":1,"byteOffset":0,"componentType":5126,"count":214,"max":[0.999542,0.889547,1,1],"min":[-0.170458,-0.861376,-1,1],"normalized":false,"type":"VEC4"},{"bufferView":2,"byteOffset":0,"componentType":5126,"count":214,"max":[1,1,0.000047],"min":[-1,-1,-1],"normalized":false,"type":"VEC3"},{"bufferView":3,"byteOffset":0,"componentType":5126,"count":214,"max":[0.462805,0.528238],"min":[0.460427,0.52509],"normalized":false,"type":"VEC2"},{"bufferView":4,"byteOffset":0,"componentType":5125,"count":624,"max":[203],"min":[0],"normalized":false,"type":"SCALAR"},{"bufferView":5,"byteOffset":0,"componentType":5126,"count":214,"max":[0.886231,0.886231,-0.016179],"min":[-0.886246,-0.886231,-0.451511],"normalized":false,"type":"VEC3"},{"bufferView":6,"byteOffset":0,"componentType":5126,"count":214,"max":[0.999542,0.889547,1,1],"min":[-0.170458,-0.861376,-1,1],"normalized":false,"type":"VEC4"},{"bufferView":7,"byteOffset":0,"componentType":5126,"count":214,"max":[1,1,0.000047],"min":[-1,-1,-1],"normalized":false,"type":"VEC3"},{"bufferView":8,"byteOffset":0,"componentType":5126,"count":214,"max":[0.462805,0.528238],"min":[0.460427,0.52509],"normalized":false,"type":"VEC2"},{"bufferView":9,"byteOffset":0,"componentType":5125,"count":624,"max":[203],"min":[0],"normalized":false,"type":"SCALAR"},{"bufferView":10,"byteOffset":0,"componentType":5126,"count":457,"max":[-0.475911,1.949625,-0.363349],"min":[-7.73517,-1.885927,-3.277802],"normalized":false,"type":"VEC3"},{"bufferView":11,"byteOffset":0,"componentType":5126,"count":457,"max":[1,1,1,1],"min":[-1,-1,-1,1],"normalized":false,"type":"VEC4"},{"bufferView":12,"byteOffset":0,"componentType":5126,"count":457,"max":[1,1,1],"min":[-1,-1,-1],"normalized":false,"type":"VEC3"},{"bufferView":13,"byteOffset":0,"componentType":5126,"count":457,"max":[0.903491,0.782176],"min":[0.710105,0.141616],"normalized":false,"type":"VEC2"},{"bufferView":14,"byteOffset":0,"componentType":5125,"count":1152,"max":[431],"min":[0],"normalized":false,"type":"SCALAR"},{"bufferView":15,"byteOffset":0,"componentType":5126,"count":457,"max":[-0.440978,1.984649,-0.328416],"min":[-7.770695,-1.920951,-3.313326],"normalized":false,"type":"VEC3"},{"bufferView":16,"byteOffset":0,"componentType":5126,"count":457,"max":[1,1,1,1],"min":[-1,-1,-1,1],"normalized":false,"type":"VEC4"},{"bufferView":17,"byteOffset":0,"componentType":5126,"count":457,"max":[1,1,1],"min":[-1,-1,-1],"normalized":false,"type":"VEC3"},{"bufferView":18,"byteOffset":0,"componentType":5126,"count":457,"max":[0.903491,0.782176],"min":[0.710105,0.141616],"normalized":false,"type":"VEC2"},{"bufferView":19,"byteOffset":0,"componentType":5125,"count":1152,"max":[431],"min":[0],"normalized":false,"type":"SCALAR"},{"bufferView":20,"byteOffset":0,"componentType":5126,"count":24,"max":[1,0.25,0.05],"min":[-1,-0.25,-0.05],"normalized":false,"type":"VEC3"},{"bufferView":21,"byteOffset":0,"componentType":5126,"count":24,"max":[1,0,1,1],"min":[-1,-0.000015,-1,1],"normalized":false,"type":"VEC4"},{"bufferView":22,"byteOffset":0,"componentType":5126,"count":24,"max":[1,1,1],"min":[-1,-1,-1],"normalized":false,"type":"VEC3"},{"bufferView":23,"byteOffset":0,"componentType":5126,"count":24,"max":[1,1],"min":[0,0],"normalized":false,"type":"VEC2"},{"bufferView":24,"byteOffset":0,"componentType":5125,"count":36,"max":[23],"min":[0],"normalized":false,"type":"SCALAR"},{"bufferView":25,"byteOffset":0,"componentType":5126,"count":10842,"max":[0.952031,0.17,0.025],"min":[-0.957344,-0.14,-0.025],"normalized":false,"type":"VEC3"},{"bufferView":26,"byteOffset":0,"componentType":5126,"count":10842,"max":[1,1,0.000108,1],"min":[-1,-1,-0.000108,1],"normalized":false,"type":"VEC4"},{"bufferView":27,"byteOffset":0,"componentType":5126,"count":10842,"max":[1,1,1],"min":[-1,-1,-1],"normalized":false,"type":"VEC3"},{"bufferView":28,"byteOffset":0,"componentType":5126,"count":10842,"max":[1,1],"min":[0,0],"normalized":false,"type":"VEC2"},{"bufferView":29,"byteOffset":0,"componentType":5125,"count":13032,"max":[10841],"min":[0],"normalized":false,"type":"SCALAR"},{"bufferView":30,"byteOffset":0,"componentType":5126,"count":24,"max":[1,0.25,0.05],"min":[-1,-0.25,-0.05],"normalized":false,"type":"VEC3"},{"bufferView":31,"byteOffset":0,"componentType":5126,"count":24,"max":[1,0,1,1],"min":[-1,-0.000015,-1,1],"normalized":false,"type":"VEC4"},{"bufferView":32,"byteOffset":0,"componentType":5126,"count":24,"max":[1,1,1],"min":[-1,-1,-1],"normalized":false,"type":"VEC3"},{"bufferView":33,"byteOffset":0,"componentType":5126,"count":24,"max":[1,1],"min":[0,0],"normalized":false,"type":"VEC2"},{"bufferView":34,"byteOffset":0,"componentType":5125,"count":36,"max":[23],"min":[0],"normalized":false,"type":"SCALAR"},{"bufferView":35,"byteOffset":0,"componentType":5126,"count":10842,"max":[0.952031,0.17,0.025],"min":[-0.957344,-0.14,-0.025],"normalized":false,"type":"VEC3"},{"bufferView":36,"byteOffset":0,"componentType":5126,"count":10842,"max":[1,1,0.000108,1],"min":[-1,-1,-0.000108,1],"normalized":false,"type":"VEC4"},{"bufferView":37,"byteOffset":0,"componentType":5126,"count":10842,"max":[1,1,1],"min":[-1,-1,-1],"normalized":false,"type":"VEC3"},{"bufferView":38,"byteOffset":0,"componentType":5126,"count":10842,"max":[1,1],"min":[0,0],"normalized":false,"type":"VEC2"},{"bufferView":39,"byteOffset":0,"componentType":5125,"count":13032,"max":[10841],"min":[0],"normalized":false,"type":"SCALAR"},{"bufferView":40,"byteOffset":0,"componentType":5126,"count":522,"max":[0.3,0.05,0.3],"min":[-0.3,-0.05,-0.3],"normalized":false,"type":"VEC3"},{"bufferView":41,"byteOffset":0,"componentType":5126,"count":522,"max":[1,0,1,1],"min":[-1,-0.000022,-1,1],"normalized":false,"type":"VEC4"},{"bufferView":42,"byteOffset":0,"componentType":5126,"count":522,"max":[1,1,1],"min":[-1,-1,-1],"normalized":false,"type":"VEC3"},{"bufferView":43,"byteOffset":0,"componentType":5126,"count":522,"max":[1,1],"min":[0,0],"normalized":false,"type":"VEC2"},{"bufferView":44,"byteOffset":0,"componentType":5125,"count":2304,"max":[521],"min":[0],"normalized":false,"type":"SCALAR"},{"bufferView":45,"byteOffset":0,"componentType":5126,"count":2210,"max":[0.199773,0.2,0.199773],"min":[-0.199773,-0.2,-0.199773],"normalized":false,"type":"VEC3"},{"bufferView":46,"byteOffset":0,"componentType":5126,"count":2210,"max":[1,0,1,1],"min":[-1,-0.000022,-1,1],"normalized":false,"type":"VEC4"},{"bufferView":47,"byteOffset":0,"componentType":5126,"count":2210,"max":[0.998868,1,0.998868],"min":[-0.998869,-1,-0.998867],"normalized":false,"type":"VEC3"},{"bufferView":48,"byteOffset":0,"componentType":5126,"count":2210,"max":[1,1],"min":[0,0],"normalized":false,"type":"VEC2"},{"bufferView":49,"byteOffset":0,"componentType":5125,"count":12672,"max":[2209],"min":[0],"normalized":false,"type":"SCALAR"},{"bufferView":50,"byteOffset":0,"componentType":5126,"count":20,"max":[1.625,1.25,0.125],"min":[-1.625,-1.25,-0.125],"normalized":false,"type":"VEC3"},{"bufferView":51,"byteOffset":0,"componentType":5126,"count":20,"max":[1,0,1,1],"min":[-1,-0.000015,-1,1],"normalized":false,"type":"VEC4"},{"bufferView":52,"byteOffset":0,"componentType":5126,"count":20,"max":[0.60971,0.792625,1],"min":[-1,-1,-1],"normalized":false,"type":"VEC3"},{"bufferView":53,"byteOffset":0,"componentType":5126,"count":20,"max":[1,1],"min":[0,0],"normalized":false,"type":"VEC2"},{"bufferView":54,"byteOffset":0,"componentType":5125,"count":24,"max":[19],"min":[2],"normalized":false,"type":"SCALAR"},{"bufferView":55,"byteOffset":0,"componentType":5126,"count":20,"max":[1.625,1.25,0.125],"min":[-1.625,-1.25,-0.125],"normalized":false,"type":"VEC3"},{"bufferView":56,"byteOffset":0,"componentType":5126,"count":20,"max":[1,0,1,1],"min":[-1,-0.000015,-1,1],"normalized":false,"type":"VEC4"},{"bufferView":57,"byteOffset":0,"componentType":5126,"count":20,"max":[0.60971,0.792625,1],"min":[-1,-1,-1],"normalized":false,"type":"VEC3"},{"bufferView":58,"byteOffset":0,"componentType":5126,"count":20,"max":[1,1],"min":[0,0],"normalized":false,"type":"VEC2"},{"bufferView":59,"byteOffset":0,"componentType":5125,"count":24,"max":[19],"min":[2],"normalized":false,"type":"SCALAR"},{"bufferView":60,"byteOffset":0,"componentType":5126,"count":3,"max":[0.6],"min":[0],"normalized":false,"type":"SCALAR"},{"bufferView":61,"byteOffset":0,"componentType":5126,"count":3,"max":[0,1,0],"min":[-1.625,1,-0.5],"normalized":false,"type":"VEC3"},{"bufferView":62,"byteOffset":0,"componentType":5126,"count":2,"max":[0.4],"min":[0],"normalized":false,"type":"SCALAR"},{"bufferView":63,"byteOffset":0,"componentType":5126,"count":2,"max":[1,1,1],"min":[0.1,1,1],"normalized":false,"type":"VEC3"},{"bufferView":64,"byteOffset":0,"componentType":5126,"count":3,"max":[0.6],"min":[0],"normalized":false,"type":"SCALAR"},{"bufferView":65,"byteOffset":0,"componentType":5126,"count":3,"max":[1.625,1,0],"min":[0,1,-0.5],"normalized":false,"type":"VEC3"},{"bufferView":66,"byteOffset":0,"componentType":5126,"count":2,"max":[0.4],"min":[0],"normalized":false,"type":"SCALAR"},{"bufferView":67,"byteOffset":0,"componentType":5126,"count":2,"max":[1,1,1],"min":[0.1,1,1],"normalized":false,"type":"VEC3"},{"bufferView":68,"byteOffset":0,"componentType":5126,"count":2,"max":[0.4],"min":[0],"normalized":false,"type":"SCALAR"},{"bufferView":69,"byteOffset":0,"componentType":5126,"count":2,"max":[0,0,0],"min":[0,0,-0.5],"normalized":false,"type":"VEC3"},{"bufferView":70,"byteOffset":0,"componentType":5126,"count":1,"max":[0],"min":[0],"normalized":false,"type":"SCALAR"},{"bufferView":71,"byteOffset":0,"componentType":5126,"count":1,"max":[0,1,0],"min":[0,1,0],"normalized":false,"type":"VEC3"},{"bufferView":72,"byteOffset":0,"componentType":5126,"count":1,"max":[0],"min":[0],"normalized":false,"type":"SCALAR"},{"bufferView":73,"byteOffset":0,"componentType":5126,"count":1,"max":[1,1,1],"min":[1,1,1],"normalized":false,"type":"VEC3"},{"bufferView":74,"byteOffset":0,"componentType":5126,"count":1,"max":[0],"min":[0],"normalized":false,"type":"SCALAR"},{"bufferView":75,"byteOffset":0,"componentType":5126,"count":1,"max":[0,1,0],"min":[0,1,0],"normalized":false,"type":"VEC3"},{"bufferView":76,"byteOffset":0,"componentType":5126,"count":1,"max":[0],"min":[0],"normalized":false,"type":"SCALAR"},{"bufferView":77,"byteOffset":0,"componentType":5126,"count":1,"max":[1,1,1],"min":[1,1,1],"normalized":false,"type":"VEC3"},{"bufferView":78,"byteOffset":0,"componentType":5126,"count":1,"max":[0],"min":[0],"normalized":false,"type":"SCALAR"},{"bufferView":79,"byteOffset":0,"componentType":5126,"count":1,"max":[0,0,-0.5],"min":[0,0,-0.5],"normalized":false,"type":"VEC3"}],"animations":[{"channels":[{"sampler":0,"target":{"node":18,"path":"translation"}},{"sampler":1,"target":{"node":18,"path":"scale"}},{"sampler":2,"target":{"node":19,"path":"translation"}},{"sampler":3,"target":{"node":19,"path":"scale"}},{"sampler":4,"target":{"node":3,"path":"translation"}}],"name":"Open2","samplers":[{"input":60,"interpolation":"LINEAR","output":61},{"input":62,"interpolation":"LINEAR","output":63},{"input":64,"interpolation":"LINEAR","output":65},{"input":66,"interpolation":"LINEAR","output":67},{"input":68,"interpolation":"LINEAR","output":69}]},{"channels":[{"sampler":0,"target":{"node":18,"path":"translation"}},{"sampler":1,"target":{"node":18,"path":"scale"}},{"sampler":2,"target":{"node":19,"path":"translation"}},{"sampler":3,"target":{"node":19,"path":"scale"}},{"sampler":4,"target":{"node":3,"path":"translation"}}],"name":"RESET4","samplers":[{"input":70,"interpolation":"LINEAR","output":71},{"input":72,"interpolation":"LINEAR","output":73},{"input":74,"interpolation":"LINEAR","output":75},{"input":76,"interpolation":"LINEAR","output":77},{"input":78,"interpolation":"LINEAR","output":79}]}],"asset":{"generator":"Godot Engine v4.1.1.stable.official@bd6af8e0ea69167dd0627f3bd54f9105bda0f8b5","version":"2.0"},"bufferViews":[{"buffer":0,"byteLength":2568,"byteOffset":0},{"buffer":0,"byteLength":3424,"byteOffset":2568},{"buffer":0,"byteLength":2568,"byteOffset":5992},{"buffer":0,"byteLength":1712,"byteOffset":8560},{"buffer":0,"byteLength":2496,"byteOffset":10272},{"buffer":0,"byteLength":2568,"byteOffset":12768},{"buffer":0,"byteLength":3424,"byteOffset":15336},{"buffer":0,"byteLength":2568,"byteOffset":18760},{"buffer":0,"byteLength":1712,"byteOffset":21328},{"buffer":0,"byteLength":2496,"byteOffset":23040},{"buffer":0,"byteLength":5484,"byteOffset":25536},{"buffer":0,"byteLength":7312,"byteOffset":31020},{"buffer":0,"byteLength":5484,"byteOffset":38332},{"buffer":0,"byteLength":3656,"byteOffset":43816},{"buffer":0,"byteLength":4608,"byteOffset":47472},{"buffer":0,"byteLength":5484,"byteOffset":52080},{"buffer":0,"byteLength":7312,"byteOffset":57564},{"buffer":0,"byteLength":5484,"byteOffset":64876},{"buffer":0,"byteLength":3656,"byteOffset":70360},{"buffer":0,"byteLength":4608,"byteOffset":74016},{"buffer":0,"byteLength":288,"byteOffset":78624},{"buffer":0,"byteLength":384,"byteOffset":78912},{"buffer":0,"byteLength":288,"byteOffset":79296},{"buffer":0,"byteLength":192,"byteOffset":79584},{"buffer":0,"byteLength":144,"byteOffset":79776},{"buffer":0,"byteLength":130104,"byteOffset":79920},{"buffer":0,"byteLength":173472,"byteOffset":210024},{"buffer":0,"byteLength":130104,"byteOffset":383496},{"buffer":0,"byteLength":86736,"byteOffset":513600},{"buffer":0,"byteLength":52128,"byteOffset":600336},{"buffer":0,"byteLength":288,"byteOffset":652464},{"buffer":0,"byteLength":384,"byteOffset":652752},{"buffer":0,"byteLength":288,"byteOffset":653136},{"buffer":0,"byteLength":192,"byteOffset":653424},{"buffer":0,"byteLength":144,"byteOffset":653616},{"buffer":0,"byteLength":130104,"byteOffset":653760},{"buffer":0,"byteLength":173472,"byteOffset":783864},{"buffer":0,"byteLength":130104,"byteOffset":957336},{"buffer":0,"byteLength":86736,"byteOffset":1087440},{"buffer":0,"byteLength":52128,"byteOffset":1174176},{"buffer":0,"byteLength":6264,"byteOffset":1226304},{"buffer":0,"byteLength":8352,"byteOffset":1232568},{"buffer":0,"byteLength":6264,"byteOffset":1240920},{"buffer":0,"byteLength":4176,"byteOffset":1247184},{"buffer":0,"byteLength":9216,"byteOffset":1251360},{"buffer":0,"byteLength":26520,"byteOffset":1260576},{"buffer":0,"byteLength":35360,"byteOffset":1287096},{"buffer":0,"byteLength":26520,"byteOffset":1322456},{"buffer":0,"byteLength":17680,"byteOffset":1348976},{"buffer":0,"byteLength":50688,"byteOffset":1366656},{"buffer":0,"byteLength":240,"byteOffset":1417344},{"buffer":0,"byteLength":320,"byteOffset":1417584},{"buffer":0,"byteLength":240,"byteOffset":1417904},{"buffer":0,"byteLength":160,"byteOffset":1418144},{"buffer":0,"byteLength":96,"byteOffset":1418304},{"buffer":0,"byteLength":240,"byteOffset":1418400},{"buffer":0,"byteLength":320,"byteOffset":1418640},{"buffer":0,"byteLength":240,"byteOffset":1418960},{"buffer":0,"byteLength":160,"byteOffset":1419200},{"buffer":0,"byteLength":96,"byteOffset":1419360},{"buffer":0,"byteLength":12,"byteOffset":1419456},{"buffer":0,"byteLength":36,"byteOffset":1419468},{"buffer":0,"byteLength":8,"byteOffset":1419504},{"buffer":0,"byteLength":24,"byteOffset":1419512},{"buffer":0,"byteLength":12,"byteOffset":1419536},{"buffer":0,"byteLength":36,"byteOffset":1419548},{"buffer":0,"byteLength":8,"byteOffset":1419584},{"buffer":0,"byteLength":24,"byteOffset":1419592},{"buffer":0,"byteLength":8,"byteOffset":1419616},{"buffer":0,"byteLength":24,"byteOffset":1419624},{"buffer":0,"byteLength":4,"byteOffset":1419648},{"buffer":0,"byteLength":12,"byteOffset":1419652},{"buffer":0,"byteLength":4,"byteOffset":1419664},{"buffer":0,"byteLength":12,"byteOffset":1419668},{"buffer":0,"byteLength":4,"byteOffset":1419680},{"buffer":0,"byteLength":12,"byteOffset":1419684},{"buffer":0,"byteLength":4,"byteOffset":1419696},{"buffer":0,"byteLength":12,"byteOffset":1419700},{"buffer":0,"byteLength":4,"byteOffset":1419712},{"buffer":0,"byteLength":12,"byteOffset":1419716}],"buffers":[{"byteLength":1419728,"uri":"task_appraisal_lever-20.bin"}],"extensions":{"KHR_lights_punctual":{"lights":[{"color":[0.709803998470306,0.552941024303436,0.317647010087967],"intensity":16,"range":6,"spot":{"innerConeAngle":0.642598509788513,"outerConeAngle":0.785398185253143},"type":"spot"},{"color":[0.709803998470306,0.552941024303436,0.317647010087967],"intensity":16,"range":6,"spot":{"innerConeAngle":0.642598509788513,"outerConeAngle":0.785398185253143},"type":"spot"}]},"OMI_collider":{"colliders":[{"radius":0.600000023841858,"type":"sphere"}]}},"extensionsUsed":["KHR_lights_punctual","OMI_collider","OMI_physics_body"],"images":[{"uri":"textures%2FBGMat_albedo000.png"}],"materials":[{"doubleSided":true,"extensions":{},"name":"BGMat","pbrMetallicRoughness":{"baseColorFactor":[0.99999988079071,0.99999988079071,0.99999988079071,1],"baseColorTexture":{"index":0},"metallicFactor":0,"roughnessFactor":0.5}},{"emissiveFactor":[0.999999940395355,0.999999940395355,0.999999940395355],"extensions":{},"pbrMetallicRoughness":{"baseColorFactor":[0.99999988079071,0.99999988079071,0.99999988079071,1],"metallicFactor":0,"roughnessFactor":1}},{"extensions":{},"pbrMetallicRoughness":{"baseColorFactor":[0.00924949161708355,0.013529765419662,0.0153252007439733,1],"metallicFactor":0,"roughnessFactor":1}},{"extensions":{},"pbrMetallicRoughness":{"baseColorFactor":[0.552010595798492,0.24620096385479,0.0512692891061306,1],"metallicFactor":0,"roughnessFactor":1}},{"emissiveFactor":[0.865876853466034,0.726243793964386,0.514231622219086],"extensions":{},"pbrMetallicRoughness":{"baseColorFactor":[0.412542849779129,0.17144076526165,0.035601269453764,1],"metallicFactor":0,"roughnessFactor":1}}],"meshes":[{"extras":{"targetNames":[]},"primitives":[{"attributes":{"NORMAL":2,"POSITION":0,"TANGENT":1,"TEXCOORD_0":3},"indices":4,"material":0,"mode":4}]},{"extras":{"targetNames":[]},"primitives":[{"attributes":{"NORMAL":7,"POSITION":5,"TANGENT":6,"TEXCOORD_0":8},"indices":9,"material":1,"mode":4}]},{"extras":{"targetNames":[]},"primitives":[{"attributes":{"NORMAL":12,"POSITION":10,"TANGENT":11,"TEXCOORD_0":13},"indices":14,"material":0,"mode":4}]},{"extras":{"targetNames":[]},"primitives":[{"attributes":{"NORMAL":17,"POSITION":15,"TANGENT":16,"TEXCOORD_0":18},"indices":19,"material":1,"mode":4}]},{"extras":{"targetNames":[]},"primitives":[{"attributes":{"NORMAL":22,"POSITION":20,"TANGENT":21,"TEXCOORD_0":23},"indices":24,"material":2,"mode":4}]},{"extras":{"targetNames":[]},"primitives":[{"attributes":{"NORMAL":27,"POSITION":25,"TANGENT":26,"TEXCOORD_0":28},"indices":29,"material":3,"mode":4}]},{"extras":{"targetNames":[]},"primitives":[{"attributes":{"NORMAL":32,"POSITION":30,"TANGENT":31,"TEXCOORD_0":33},"indices":34,"material":2,"mode":4}]},{"extras":{"targetNames":[]},"primitives":[{"attributes":{"NORMAL":37,"POSITION":35,"TANGENT":36,"TEXCOORD_0":38},"indices":39,"material":3,"mode":4}]},{"extras":{"targetNames":[]},"primitives":[{"attributes":{"NORMAL":42,"POSITION":40,"TANGENT":41,"TEXCOORD_0":43},"indices":44,"material":2,"mode":4}]},{"extras":{"targetNames":[]},"primitives":[{"attributes":{"NORMAL":47,"POSITION":45,"TANGENT":46,"TEXCOORD_0":48},"indices":49,"material":4,"mode":4}]},{"extras":{"targetNames":[]},"primitives":[{"attributes":{"NORMAL":52,"POSITION":50,"TANGENT":51,"TEXCOORD_0":53},"indices":54,"material":2,"mode":4}]},{"extras":{"targetNames":[]},"primitives":[{"attributes":{"NORMAL":57,"POSITION":55,"TANGENT":56,"TEXCOORD_0":58},"indices":59,"material":2,"mode":4}]}],"nodes":[{"children":[1,2,3,17,18,19,20],"extensions":{"OMI_physics_body":{"type":"static"}},"name":"TaskAppraisalLever","rotation":[0,1,0,-0.0000000437114],"translation":[1,1.5,7]},{"extensions":{"OMI_collider":{"collider":0}},"name":"CollisionShape3D"},{"extensions":{},"name":"AnimationPlayer"},{"children":[4,6,8,10,12],"extensions":{},"name":"lever","rotation":[0,1,0,-0.0000000437114],"translation":[0.00000000000208164735449046,0.00000000000208164735449046,-0.5]},{"children":[5],"extensions":{},"mesh":0,"name":"Base","scale":[0.339886009693146,0.339886009693146,0.339886009693146]},{"extensions":{},"mesh":1,"name":"Outline"},{"children":[7],"extensions":{},"mesh":2,"name":"Cylinder","rotation":[-0.05140783265233,-0.05140802264214,-0.70523691177368,0.705234289169312],"scale":[0.0799999758601189,0.200000002980232,0.0799999758601189]},{"extensions":{},"mesh":3,"name":"Outline2"},{"children":[9],"extensions":{},"mesh":4,"name":"Banner","rotation":[0,1,0,0.000000043711398944879],"scale":[1.5,1.5,1.5],"translation":[0,1.09999990463257,0]},{"extensions":{},"mesh":5,"name":"MeshInstance3D","translation":[0.00000000000208164995657567,0.00000000000208164995657567,0.0500000007450581]},{"children":[11],"extensions":{},"mesh":6,"name":"Banner2","rotation":[0,1,0,0.000000043711398944879],"scale":[1.5,1.5,1.5],"translation":[0,1.09999990463257,0]},{"extensions":{},"mesh":7,"name":"MeshInstance3D2","translation":[0.00000000000208164995657567,0.00000000000208164995657567,0.0500000007450581]},{"children":[13],"extensions":{},"mesh":8,"name":"Base2","rotation":[-0.00000009272588,-0.70710676908493,0.70710676908493,-0.00000003090863],"translation":[0,1.90000009536743,0]},{"children":[14,15,16],"extensions":{},"mesh":9,"name":"EmergencyLight"},{"extensions":{"KHR_lights_punctual":{"light":0}},"name":"SpotLight3D","translation":[0,0.200000002980232,0]},{"extensions":{"KHR_lights_punctual":{"light":1}},"name":"SpotLight3D2","rotation":[0.0000000000000000000014823076577,1,-0.0000000437114,0.000000043711398944879],"translation":[0,0.200000002980232,0]},{"extensions":{},"name":"AnimationPlayer2"},{"extensions":{},"name":"LeverAnimator"},{"extensions":{},"mesh":10,"name":"LeftDoor","translation":[0.00000000000208164735449046,1,0.00000000000208164735449046]},{"extensions":{},"mesh":11,"name":"RightDoor","rotation":[-0.0000000874228,-0,1,0.0000000754979012640433],"translation":[0.00000000000208164735449046,1,0.00000000000208164735449046]},{"extensions":{},"name":"Open"}],"samplers":[{"magFilter":9729,"minFilter":9987,"wrapS":10497,"wrapT":10497}],"scene":0,"scenes":[{"nodes":[0]}],"textures":[{"sampler":0,"source":0}]}