{"accessors":[{"bufferView":0,"byteOffset":0,"componentType":5126,"count":522,"max":[0.5,0.05,0.5],"min":[-0.5,-0.05,-0.5],"normalized":false,"type":"VEC3"},{"bufferView":1,"byteOffset":0,"componentType":5126,"count":522,"max":[1,0,1,1],"min":[-1,-0.000022,-1,1],"normalized":false,"type":"VEC4"},{"bufferView":2,"byteOffset":0,"componentType":5126,"count":522,"max":[0.371381,1,0.371415],"min":[-0.371415,-1,-0.37136],"normalized":false,"type":"VEC3"},{"bufferView":3,"byteOffset":0,"componentType":5126,"count":522,"max":[1,1],"min":[0,0],"normalized":false,"type":"VEC2"},{"bufferView":4,"byteOffset":0,"componentType":5125,"count":2304,"max":[521],"min":[0],"normalized":false,"type":"SCALAR"},{"bufferView":5,"byteOffset":0,"componentType":5126,"count":24,"max":[0.05,0.25,0.05],"min":[-0.05,-0.25,-0.05],"normalized":false,"type":"VEC3"},{"bufferView":6,"byteOffset":0,"componentType":5126,"count":24,"max":[1,0,1,1],"min":[-1,-0.000015,-1,1],"normalized":false,"type":"VEC4"},{"bufferView":7,"byteOffset":0,"componentType":5126,"count":24,"max":[1,1,1],"min":[-1,-1,-1],"normalized":false,"type":"VEC3"},{"bufferView":8,"byteOffset":0,"componentType":5126,"count":24,"max":[1,1],"min":[0,0],"normalized":false,"type":"VEC2"},{"bufferView":9,"byteOffset":0,"componentType":5125,"count":36,"max":[23],"min":[0],"normalized":false,"type":"SCALAR"},{"bufferView":10,"byteOffset":0,"componentType":5126,"count":24,"max":[0.078868,0.278868,0.078868],"min":[-0.078868,-0.278868,-0.078868],"normalized":false,"type":"VEC3"},{"bufferView":11,"byteOffset":0,"componentType":5126,"count":24,"max":[1,0,1,1],"min":[-1,-0.000015,-1,1],"normalized":false,"type":"VEC4"},{"bufferView":12,"byteOffset":0,"componentType":5126,"count":24,"max":[1,1,1],"min":[-1,-1,-1],"normalized":false,"type":"VEC3"},{"bufferView":13,"byteOffset":0,"componentType":5126,"count":24,"max":[1,1],"min":[0,0],"normalized":false,"type":"VEC2"},{"bufferView":14,"byteOffset":0,"componentType":5125,"count":36,"max":[23],"min":[0],"normalized":false,"type":"SCALAR"},{"bufferView":15,"byteOffset":0,"componentType":5126,"count":24,"max":[0.075,0.25,0.075],"min":[-0.075,-0.25,-0.075],"normalized":false,"type":"VEC3"},{"bufferView":16,"byteOffset":0,"componentType":5126,"count":24,"max":[1,0,1,1],"min":[-1,-0.000015,-1,1],"normalized":false,"type":"VEC4"},{"bufferView":17,"byteOffset":0,"componentType":5126,"count":24,"max":[1,1,1],"min":[-1,-1,-1],"normalized":false,"type":"VEC3"},{"bufferView":18,"byteOffset":0,"componentType":5126,"count":24,"max":[1,1],"min":[0,0],"normalized":false,"type":"VEC2"},{"bufferView":19,"byteOffset":0,"componentType":5125,"count":36,"max":[23],"min":[0],"normalized":false,"type":"SCALAR"},{"bufferView":20,"byteOffset":0,"componentType":5126,"count":24,"max":[0.103868,0.278868,0.103868],"min":[-0.103868,-0.278868,-0.103868],"normalized":false,"type":"VEC3"},{"bufferView":21,"byteOffset":0,"componentType":5126,"count":24,"max":[1,0,1,1],"min":[-1,-0.000015,-1,1],"normalized":false,"type":"VEC4"},{"bufferView":22,"byteOffset":0,"componentType":5126,"count":24,"max":[1,1,1],"min":[-1,-1,-1],"normalized":false,"type":"VEC3"},{"bufferView":23,"byteOffset":0,"componentType":5126,"count":24,"max":[1,1],"min":[0,0],"normalized":false,"type":"VEC2"},{"bufferView":24,"byteOffset":0,"componentType":5125,"count":36,"max":[23],"min":[0],"normalized":false,"type":"SCALAR"},{"bufferView":25,"byteOffset":0,"componentType":5126,"count":522,"max":[0.517413,0.1,0.517403],"min":[-0.517413,-0.1,-0.517413],"normalized":false,"type":"VEC3"},{"bufferView":26,"byteOffset":0,"componentType":5126,"count":522,"max":[1,0,1,1],"min":[-1,-0.000022,-1,1],"normalized":false,"type":"VEC4"},{"bufferView":27,"byteOffset":0,"componentType":5126,"count":522,"max":[0.371381,1,0.371463],"min":[-0.371415,-1,-0.37136],"normalized":false,"type":"VEC3"},{"bufferView":28,"byteOffset":0,"componentType":5126,"count":522,"max":[1,1],"min":[0,0],"normalized":false,"type":"VEC2"},{"bufferView":29,"byteOffset":0,"componentType":5125,"count":2304,"max":[521],"min":[0],"normalized":false,"type":"SCALAR"},{"bufferView":30,"byteOffset":0,"componentType":5126,"count":24,"max":[1.1,0.3,0.05],"min":[-1.1,-0.3,-0.05],"normalized":false,"type":"VEC3"},{"bufferView":31,"byteOffset":0,"componentType":5126,"count":24,"max":[1,0,1,1],"min":[-1,-0.000015,-1,1],"normalized":false,"type":"VEC4"},{"bufferView":32,"byteOffset":0,"componentType":5126,"count":24,"max":[1,1,1],"min":[-1,-1,-1],"normalized":false,"type":"VEC3"},{"bufferView":33,"byteOffset":0,"componentType":5126,"count":24,"max":[1,1],"min":[0,0],"normalized":false,"type":"VEC2"},{"bufferView":34,"byteOffset":0,"componentType":5125,"count":36,"max":[23],"min":[0],"normalized":false,"type":"SCALAR"},{"bufferView":35,"byteOffset":0,"componentType":5126,"count":11522,"max":[1.042656,0.18,0.025],"min":[-1.042187,-0.155,-0.025],"normalized":false,"type":"VEC3"},{"bufferView":36,"byteOffset":0,"componentType":5126,"count":11522,"max":[1,1,0.000108,1],"min":[-1,-1,-0.000108,1],"normalized":false,"type":"VEC4"},{"bufferView":37,"byteOffset":0,"componentType":5126,"count":11522,"max":[1,1,1],"min":[-1,-1,-1],"normalized":false,"type":"VEC3"},{"bufferView":38,"byteOffset":0,"componentType":5126,"count":11522,"max":[1,1],"min":[0,0],"normalized":false,"type":"VEC2"},{"bufferView":39,"byteOffset":0,"componentType":5125,"count":13848,"max":[11521],"min":[0],"normalized":false,"type":"SCALAR"}],"asset":{"generator":"Godot Engine v4.1.1.stable.official@bd6af8e0ea69167dd0627f3bd54f9105bda0f8b5","version":"2.0"},"bufferViews":[{"buffer":0,"byteLength":6264,"byteOffset":0},{"buffer":0,"byteLength":8352,"byteOffset":6264},{"buffer":0,"byteLength":6264,"byteOffset":14616},{"buffer":0,"byteLength":4176,"byteOffset":20880},{"buffer":0,"byteLength":9216,"byteOffset":25056},{"buffer":0,"byteLength":288,"byteOffset":34272},{"buffer":0,"byteLength":384,"byteOffset":34560},{"buffer":0,"byteLength":288,"byteOffset":34944},{"buffer":0,"byteLength":192,"byteOffset":35232},{"buffer":0,"byteLength":144,"byteOffset":35424},{"buffer":0,"byteLength":288,"byteOffset":35568},{"buffer":0,"byteLength":384,"byteOffset":35856},{"buffer":0,"byteLength":288,"byteOffset":36240},{"buffer":0,"byteLength":192,"byteOffset":36528},{"buffer":0,"byteLength":144,"byteOffset":36720},{"buffer":0,"byteLength":288,"byteOffset":36864},{"buffer":0,"byteLength":384,"byteOffset":37152},{"buffer":0,"byteLength":288,"byteOffset":37536},{"buffer":0,"byteLength":192,"byteOffset":37824},{"buffer":0,"byteLength":144,"byteOffset":38016},{"buffer":0,"byteLength":288,"byteOffset":38160},{"buffer":0,"byteLength":384,"byteOffset":38448},{"buffer":0,"byteLength":288,"byteOffset":38832},{"buffer":0,"byteLength":192,"byteOffset":39120},{"buffer":0,"byteLength":144,"byteOffset":39312},{"buffer":0,"byteLength":6264,"byteOffset":39456},{"buffer":0,"byteLength":8352,"byteOffset":45720},{"buffer":0,"byteLength":6264,"byteOffset":54072},{"buffer":0,"byteLength":4176,"byteOffset":60336},{"buffer":0,"byteLength":9216,"byteOffset":64512},{"buffer":0,"byteLength":288,"byteOffset":73728},{"buffer":0,"byteLength":384,"byteOffset":74016},{"buffer":0,"byteLength":288,"byteOffset":74400},{"buffer":0,"byteLength":192,"byteOffset":74688},{"buffer":0,"byteLength":144,"byteOffset":74880},{"buffer":0,"byteLength":138264,"byteOffset":75024},{"buffer":0,"byteLength":184352,"byteOffset":213288},{"buffer":0,"byteLength":138264,"byteOffset":397640},{"buffer":0,"byteLength":92176,"byteOffset":535904},{"buffer":0,"byteLength":55392,"byteOffset":628080}],"buffers":[{"byteLength":683472,"uri":"task_appraisal_lever0.bin"}],"extensions":{"OMI_collider":{"colliders":[{"radius":0.600000023841858,"type":"sphere"}]}},"extensionsUsed":["OMI_collider","OMI_physics_body"],"materials":[{"extensions":{},"pbrMetallicRoughness":{"baseColorFactor":[0.99999988079071,0.0595112405717373,0.0129830306395888,1],"metallicFactor":0,"roughnessFactor":1}},{"extensions":{},"pbrMetallicRoughness":{"baseColorFactor":[0,0,0,1],"metallicFactor":0,"roughnessFactor":1}},{"emissiveFactor":[0.999999940395355,0.999999940395355,0.999999940395355],"extensions":{},"pbrMetallicRoughness":{"baseColorFactor":[0.99999988079071,0.99999988079071,0.99999988079071,1],"metallicFactor":0,"roughnessFactor":1}},{"extensions":{},"pbrMetallicRoughness":{"baseColorFactor":[0.99999988079071,0.0595112405717373,0.0129830306395888,1],"metallicFactor":0,"roughnessFactor":1}},{"emissiveFactor":[0.999999940395355,0.999999940395355,0.999999940395355],"extensions":{},"pbrMetallicRoughness":{"baseColorFactor":[0.99999988079071,0.99999988079071,0.99999988079071,1],"metallicFactor":0,"roughnessFactor":1}},{"emissiveFactor":[0.999999940395355,0.999999940395355,0.999999940395355],"extensions":{},"pbrMetallicRoughness":{"baseColorFactor":[0.99999988079071,0.99999988079071,0.99999988079071,1],"metallicFactor":0,"roughnessFactor":1}},{"emissiveFactor":[0.999999940395355,0.556948006153107,0.377508401870728],"extensions":{},"pbrMetallicRoughness":{"baseColorFactor":[0.99999988079071,0.0595112405717373,0.0129830306395888,1],"metallicFactor":0,"roughnessFactor":1}}],"meshes":[{"extras":{"targetNames":[]},"primitives":[{"attributes":{"NORMAL":2,"POSITION":0,"TANGENT":1,"TEXCOORD_0":3},"indices":4,"material":0,"mode":4}]},{"extras":{"targetNames":[]},"primitives":[{"attributes":{"NORMAL":7,"POSITION":5,"TANGENT":6,"TEXCOORD_0":8},"indices":9,"material":1,"mode":4}]},{"extras":{"targetNames":[]},"primitives":[{"attributes":{"NORMAL":12,"POSITION":10,"TANGENT":11,"TEXCOORD_0":13},"indices":14,"material":2,"mode":4}]},{"extras":{"targetNames":[]},"primitives":[{"attributes":{"NORMAL":17,"POSITION":15,"TANGENT":16,"TEXCOORD_0":18},"indices":19,"material":3,"mode":4}]},{"extras":{"targetNames":[]},"primitives":[{"attributes":{"NORMAL":22,"POSITION":20,"TANGENT":21,"TEXCOORD_0":23},"indices":24,"material":4,"mode":4}]},{"extras":{"targetNames":[]},"primitives":[{"attributes":{"NORMAL":27,"POSITION":25,"TANGENT":26,"TEXCOORD_0":28},"indices":29,"material":5,"mode":4}]},{"extras":{"targetNames":[]},"primitives":[{"attributes":{"NORMAL":32,"POSITION":30,"TANGENT":31,"TEXCOORD_0":33},"indices":34,"material":1,"mode":4}]},{"extras":{"targetNames":[]},"primitives":[{"attributes":{"NORMAL":37,"POSITION":35,"TANGENT":36,"TEXCOORD_0":38},"indices":39,"material":6,"mode":4}]}],"nodes":[{"children":[1,8,9,11],"extensions":{"OMI_physics_body":{"type":"static"}},"name":"TaskAppraisalLever","rotation":[0,1,0,-0.0000000437114],"translation":[1,1.5,7]},{"children":[2,7],"extensions":{},"mesh":0,"name":"MeshInstance3D","rotation":[0.70710676908493,0,0,0.70710676908493]},{"children":[3,5],"extensions":{},"name":"Hinge","rotation":[-0.60876142978668,-0.0000000532196,0.0000000000000044780975971923,0.793353319168091]},{"children":[4],"extensions":{},"mesh":1,"name":"MeshInstance3D2","translation":[0.00000000000208164995657567,0.25,0.00000000000208164995657567]},{"extensions":{},"mesh":2,"name":"Outline"},{"children":[6],"extensions":{},"mesh":3,"name":"Handle","rotation":[0.000000000000000246629630339969,0.00000000000000000000000935848017,0.70710676908493,0.70710676908493],"translation":[0.00000000000208164995657567,0.5,0.00000000000208164995657567]},{"extensions":{},"mesh":4,"name":"Outline2"},{"extensions":{},"mesh":5,"name":"Outline3","translation":[0.00000000000208164735449046,0.0599999986588955,0.00000000000208164735449046]},{"extensions":{"OMI_collider":{"collider":0}},"name":"CollisionShape3D"},{"children":[10],"extensions":{},"mesh":6,"name":"MeshInstance3D3","translation":[0,1,0]},{"extensions":{},"mesh":7,"name":"MeshInstance3D22","translation":[0.00000000000208164735449046,0.00000000000208164735449046,0.0750000029802322]},{"extensions":{},"name":"AnimationPlayer"}],"scene":0,"scenes":[{"nodes":[0]}]}